<?xml version="1.0" encoding="utf-8"?><!DOCTYPE svg PUBLIC "-//W3C//DTD SVG 1.1//EN" "http://www.w3.org/Graphics/SVG/1.1/DTD/svg11.dtd">
<svg xmlns="http://www.w3.org/2000/svg" xmlns:xlink="http://www.w3.org/1999/xlink">
    <symbol viewBox="0 0 8 6" id="quiz-nav-arrow-prev">
        <path d="M2.61289 5.90976C2.72188 6.03008 2.90327 6.03008 3.01607 5.90976C3.12506 5.79352 3.12506 5.60004 3.01607 5.48406L0.971736 3.3035L7.71775 3.3035C7.87501 3.30322 8 3.1699 8 3.00217C8 2.83443 7.87501 2.69678 7.71775 2.69678L0.971736 2.69678L3.01607 0.520278C3.12505 0.399964 3.12505 0.206215 3.01607 0.0902361C2.90327 -0.0300784 2.72163 -0.0300784 2.61289 0.0902362L0.0845978 2.78701C-0.0281995 2.90326 -0.0281994 3.09674 0.0845978 3.21272L2.61289 5.90976Z"/>
    </symbol>
    <symbol viewBox="0 0 8 6" id="quiz-nav-arrow-next">
        <path d="M5.38711 0.0902358C5.27812 -0.0300786 5.09673 -0.0300786 4.98393 0.0902358C4.87494 0.206485 4.87494 0.399964 4.98393 0.515943L7.02826 2.6965H0.282248C0.124992 2.69678 0 2.8301 0 2.99783C0 3.16557 0.124992 3.30322 0.282248 3.30322H7.02826L4.98393 5.47972C4.87494 5.60004 4.87494 5.79379 4.98393 5.90976C5.09673 6.03008 5.27837 6.03008 5.38711 5.90976L7.9154 3.21299C8.0282 3.09674 8.0282 2.90326 7.9154 2.78728L5.38711 0.0902358Z"/>
    </symbol>
    <symbol viewBox="0 0 492.004 492.004" id="quiz-arrow-down">
        <path d="M484.14,226.886L306.46,49.202c-5.072-5.072-11.832-7.856-19.04-7.856c-7.216,0-13.972,2.788-19.044,7.856l-16.132,16.136c-5.068,5.064-7.86,11.828-7.86,19.04c0,7.208,2.792,14.2,7.86,19.264L355.9,207.526H26.58C11.732,207.526,0,219.15,0,234.002v22.812c0,14.852,11.732,27.648,26.58,27.648h330.496L252.248,388.926c-5.068,5.072-7.86,11.652-7.86,18.864c0,7.204,2.792,13.88,7.86,18.948l16.132,16.084c5.072,5.072,11.828,7.836,19.044,7.836c7.208,0,13.968-2.8,19.04-7.872l177.68-177.68c5.084-5.088,7.88-11.88,7.86-19.1C492.02,238.762,489.228,231.966,484.14,226.886z"/>
    </symbol>
    <symbol viewBox="0 0 100 100" id="quiz-loading">
        <path d="M73,50c0-12.7-10.3-23-23-23S27,37.3,27,50 M30.9,50c0-10.5,8.5-19.1,19.1-19.1S69.1,39.5,69.1,50"/>
    </symbol>
    <symbol viewBox="0 0 512 512" id="quiz-question-help">
        <circle cx="256" cy="378.5" r="25"/><path d="M256,0C114.516,0,0,114.497,0,256c0,141.484,114.497,256,256,256c141.484,0,256-114.497,256-256C512,114.516,397.503,0,256,0z M256,472c-119.377,0-216-96.607-216-216c0-119.377,96.607-216,216-216c119.377,0,216,96.607,216,216C472,375.377,375.393,472,256,472z"/><path d="M256,128.5c-44.112,0-80,35.888-80,80c0,11.046,8.954,20,20,20s20-8.954,20-20c0-22.056,17.944-40,40-40c22.056,0,40,17.944,40,40c0,22.056-17.944,40-40,40c-11.046,0-20,8.954-20,20v50c0,11.046,8.954,20,20,20c11.046,0,20-8.954,20-20v-32.531c34.466-8.903,60-40.26,60-77.469C336,164.388,300.112,128.5,256,128.5z"/>
    </symbol>
    <symbol viewBox="0 0 512 512" id="quiz-company-info">
        <path d="M256,85.333c-23.531,0-42.667,19.135-42.667,42.667s19.135,42.667,42.667,42.667s42.667-19.135,42.667-42.667				S279.531,85.333,256,85.333z M256,149.333c-11.76,0-21.333-9.573-21.333-21.333s9.573-21.333,21.333-21.333s21.333,9.573,21.333,21.333S267.76,149.333,256,149.333z"/><path d="M288,192h-85.333c-5.896,0-10.667,4.771-10.667,10.667v42.667c0,5.896,4.771,10.667,10.667,10.667h10.667v160c0,5.896,4.771,10.667,10.667,10.667h64c5.896,0,10.667-4.771,10.667-10.667V202.667C298.667,196.771,293.896,192,288,192zM277.333,405.333h-42.667v-160c0-5.896-4.771-10.667-10.667-10.667h-10.667v-21.333h64V405.333z"/><path d="M256,0C114.844,0,0,114.844,0,256s114.844,256,256,256s256-114.844,256-256S397.156,0,256,0z M256,490.667C126.604,490.667,21.333,385.396,21.333,256S126.604,21.333,256,21.333S490.667,126.604,490.667,256S385.396,490.667,256,490.667z"/>
    </symbol>
</svg>